<svg width="24" height="24" viewBox="0 0 24 24" fill="none" xmlns="http://www.w3.org/2000/svg">
<path fill-rule="evenodd" clip-rule="evenodd" d="M9.1917 17.9499C9.1906 18.5284 8.7209 18.9966 8.14237 18.9959C7.56384 18.9952 7.09534 18.5258 7.0957 17.9472C7.09607 17.3687 7.56517 16.8999 8.1437 16.8999C8.42191 16.9002 8.68863 17.0109 8.88516 17.2079C9.0817 17.4048 9.19197 17.6717 9.1917 17.9499V17.9499Z" stroke="#584540" stroke-width="1.5" stroke-linecap="round" stroke-linejoin="round"/>
<path fill-rule="evenodd" clip-rule="evenodd" d="M14.7815 17.9499C14.7804 18.5284 14.3107 18.9966 13.7322 18.9959C13.1537 18.9952 12.6852 18.5258 12.6855 17.9472C12.6859 17.3687 13.155 16.8999 13.7335 16.8999C14.0118 16.9002 14.2785 17.0109 14.475 17.2079C14.6715 17.4048 14.7818 17.6717 14.7815 17.9499V17.9499Z" stroke="#584540" stroke-width="1.5" stroke-linecap="round" stroke-linejoin="round"/>
<path fill-rule="evenodd" clip-rule="evenodd" d="M18.6 7.80005H8.49297L7.79297 13.4C7.79297 14.1732 8.41977 14.8 9.19297 14.8H15.393C15.8846 14.7998 16.3401 14.5417 16.593 14.12L19.8 9.92005C20.0593 9.48764 20.066 8.9492 19.8177 8.51041C19.5693 8.07163 19.1042 7.80029 18.6 7.80005Z" stroke="#584540" stroke-width="1.5" stroke-linecap="round" stroke-linejoin="round"/>
<path d="M8.493 7.8L7.824 5.118C7.80611 5.04823 7.74303 4.99958 7.671 5H5" stroke="#584540" stroke-width="1.5" stroke-linecap="round" stroke-linejoin="round"/>
</svg>
